name processed_emg_signals						
nRows=103						
nColumns=7						
 						
endheader						
time	LGLTMED	LRF	LADDLONG	LST	LTA	LGM
0	0.004138147	0.01269459	0.016366592	0.128431088	0.083324897	0.010975885
0.001	0.004625	0.011190785	0.014838823	0.121832436	0.088385169	0.014693035
0.002	0.005109174	0.009698322	0.01331959	0.115244647	0.093494109	0.018401642
0.003	0.005590297	0.008218194	0.011809831	0.108670251	0.098648863	0.022099318
0.004	0.006067997	0.006751382	0.010310465	0.102111726	0.103846516	0.02578368
0.005	0.006541905	0.00529885	0.008822402	0.095571498	0.109084106	0.029452357
0.006	0.007011656	0.003861551	0.007346531	0.089051935	0.114358623	0.033102987
0.007	0.007476889	0.002440415	0.005883726	0.082555344	0.119667012	0.036733228
0.008	0.007937247	0.001036359	0.004434842	0.076083972	0.125006181	0.040340753
0.009	0.008392377	0.000349721	0.003000713	0.069640002	0.130373004	0.043923259
0.01	0.008841934	0.001716951	0.001582154	0.063225553	0.135764325	0.04747847
0.011	0.009285577	0.003064477	0.000179954	0.056842677	0.141176961	0.051004136
0.012	0.009722972	0.004391469	0.001205117	0.050493356	0.146607709	0.054498041
0.013	0.010153795	0.005697122	0.002572318	0.044179504	0.152053348	0.057958003
0.014	0.010577725	0.006980653	0.00392093	0.037902967	0.157510644	0.061381878
0.015	0.010994455	0.00824131	0.005250262	0.031665517	0.162976356	0.064767563
0.016	0.011403683	0.009478363	0.006559648	0.025468857	0.168447237	0.068112998
0.017	0.011805117	0.010691114	0.007848454	0.019314618	0.17392004	0.071416173
0.018	0.012198476	0.011878891	0.00911607	0.01320436	0.179391523	0.074675124
0.019	0.01258349	0.013041055	0.010361918	0.007139572	0.184858452	0.077887942
0.02	0.012959898	0.014176993	0.011585449	0.00112167	0.190317605	0.081052771
0.021	0.013327452	0.015286127	0.012786144	0.004847995	0.195765777	0.084167814
0.022	0.013685916	0.016367909	0.013963515	0.010768146	0.201199781	0.087231333
0.023	0.014035064	0.017421824	0.015117106	0.016637573	0.206616459	0.090241654
0.024	0.014374685	0.018447389	0.01624649	0.02245513	0.212012675	0.093197166
0.025	0.014704581	0.019444155	0.017351273	0.028219741	0.217385331	0.096096327
0.026	0.015024567	0.020411708	0.018431095	0.03393039	0.222731362	0.098937662
0.027	0.015334471	0.021349666	0.019485623	0.039586125	0.22804774	0.10171977
0.028	0.015634136	0.022257682	0.02051456	0.045186056	0.233331484	0.104441319
0.029	0.01592342	0.023135446	0.021517639	0.050729348	0.238579656	0.107101055
0.03	0.016202196	0.02398268	0.022494626	0.056215225	0.24378937	0.1096978
0.031	0.016470349	0.024799143	0.023445318	0.061642963	0.24895779	0.112230452
0.032	0.016727784	0.025584628	0.024369543	0.067011893	0.254082138	0.114697991
0.033	0.016974419	0.026338966	0.025267163	0.072321392	0.259159693	0.117099474
0.034	0.017210187	0.027062021	0.026138067	0.077570886	0.264187796	0.119434044
0.035	0.01743504	0.027753693	0.026982179	0.082759844	0.269163852	0.121700922
0.036	0.017648942	0.028413918	0.027799451	0.087887779	0.274085331	0.123899416
0.037	0.017851878	0.029042666	0.028589865	0.092954242	0.278949774	0.126028916
0.038	0.018043845	0.029639944	0.029353433	0.09795882	0.283754789	0.128088895
0.039	0.018224861	0.030205791	0.030090197	0.102901135	0.288498061	0.130078915
0.04	0.018394956	0.030740285	0.030800226	0.107780841	0.293177346	0.131998617
0.041	0.018554181	0.031243533	0.031483617	0.11259762	0.297790476	0.133847731
0.042	0.0187026	0.031715681	0.032140496	0.117351179	0.302335362	0.135626069
0.043	0.018840296	0.032156905	0.032771015	0.122041251	0.30680999	0.137333527
0.044	0.01896737	0.032567418	0.033375351	0.126667588	0.311212429	0.138970085
0.045	0.019083935	0.032947462	0.033953707	0.131229961	0.315540825	0.140535804
0.046	0.019190126	0.033297314	0.034506311	0.135728156	0.319793406	0.142030828
0.047	0.01928609	0.033617281	0.035033415	0.140161975	0.323968478	0.143455379
0.048	0.019371994	0.033907704	0.035535295	0.144531229	0.328064431	0.144809761
0.049	0.019448019	0.034168952	0.036012246	0.148835738	0.332079734	0.146094353
0.05	0.019514363	0.034401426	0.03646459	0.153075329	0.336012938	0.147309611
0.051	0.01957124	0.034605556	0.036892664	0.157249834	0.339862674	0.148456065
0.052	0.019618879	0.0347818	0.03729683	0.161359087	0.343627652	0.149534318
0.053	0.019657527	0.034930646	0.037677465	0.165402923	0.347306665	0.150545044
0.054	0.019687444	0.035052606	0.038034968	0.169381176	0.35089858	0.151488985
0.055	0.019708906	0.035148224	0.038369753	0.173293676	0.354402348	0.15236695
0.056	0.019722203	0.035218064	0.038682251	0.177140249	0.357816994	0.153179812
0.057	0.019727641	0.035262719	0.03897291	0.180920716	0.361141621	0.153928507
0.058	0.01972554	0.035282806	0.039242191	0.18463489	0.364375408	0.15461403
0.059	0.019716232	0.035278963	0.03949057	0.188282575	0.367517607	0.155237435
0.06	0.019700066	0.035251853	0.039718537	0.191863566	0.370567547	0.155799829
0.061	0.019677402	0.035202159	0.039926593	0.195377646	0.373524626	0.156302373
0.062	0.019648613	0.035130586	0.04011525	0.198824589	0.376388317	0.15674628
0.063	0.019614086	0.035037857	0.040285033	0.202204153	0.37915816	0.157132807
0.064	0.019574219	0.034924715	0.040436474	0.205516087	0.381833764	0.157463258
0.065	0.019529422	0.034791923	0.040570116	0.208760124	0.384414808	0.157738981
0.066	0.019480116	0.034640257	0.040686508	0.211935985	0.386901033	0.15796136
0.067	0.019426734	0.034470511	0.040786207	0.215043376	0.389292247	0.158131821
0.068	0.019369719	0.034283495	0.040869779	0.21808199	0.39158832	0.158251821
0.069	0.019309524	0.03408003	0.040937791	0.221051506	0.393789182	0.158322851
0.07	0.019246611	0.033860955	0.040990818	0.223951589	0.395894823	0.158346431
0.071	0.019181453	0.033627116	0.041029438	0.22678189	0.397905292	0.158324106
0.072	0.019114529	0.033379373	0.041054232	0.229542051	0.399820691	0.158257449
0.073	0.019046329	0.033118596	0.041065785	0.232231699	0.401641181	0.158148052
0.074	0.018977348	0.032845663	0.041064683	0.234850449	0.40336697	0.157997525
0.075	0.01890809	0.032561461	0.041051511	0.237397909	0.40499832	0.157807498
0.076	0.018839065	0.032266885	0.041026858	0.239873676	0.406535542	0.157579613
0.077	0.018770789	0.031962834	0.04099131	0.242277341	0.407978993	0.157315522
0.078	0.018703784	0.031650215	0.040945453	0.244608485	0.409329075	0.157016889
0.079	0.018638577	0.031329937	0.040889872	0.246866688	0.410586234	0.156685384
0.08	0.018575699	0.031002913	0.040825148	0.249051524	0.411750957	0.156322681
0.081	0.018515685	0.03067006	0.040751861	0.251162568	0.412823771	0.155930456
0.082	0.018459075	0.030332294	0.040670585	0.253199394	0.413805242	0.155510384
0.083	0.018406408	0.029990533	0.040581892	0.255161577	0.414695968	0.155064141
0.084	0.01835823	0.029645694	0.040486349	0.257048698	0.415496586	0.154593396
0.085	0.018315086	0.029298693	0.040384517	0.258860344	0.416207762	0.154099811
0.086	0.018277521	0.028950443	0.040276951	0.260596111	0.416830193	0.153585042
0.087	0.018246084	0.028601855	0.040164201	0.262255605	0.417364605	0.153050733
0.088	0.01822132	0.028253834	0.040046809	0.263838445	0.417811749	0.152498515
0.089	0.018203775	0.027907283	0.039925309	0.265344268	0.418172404	0.151930007
0.09	0.018193995	0.027563095	0.039800229	0.266772726	0.41844737	0.15134681
0.091	0.018192523	0.027222161	0.039672088	0.268123492	0.418637467	0.150750511
0.092	0.018199898	0.02688536	0.039541395	0.269396263	0.418743539	0.150142673
0.093	0.018216658	0.026553564	0.039408652	0.27059076	0.418766445	0.149524842
0.094	0.018243336	0.026227638	0.03927435	0.271706731	0.418707062	0.148898541
0.095	0.018280461	0.025908434	0.03913897	0.272743957	0.418566282	0.148265269
0.096	0.018328558	0.025596794	0.039002985	0.273702248	0.41834501	0.147626502
0.097	0.018388144	0.025293547	0.038866856	0.274581449	0.418044166	0.146983688
0.098	0.018459731	0.024999513	0.038731031	0.275381444	0.417664679	0.146338249
0.099	0.018543825	0.024715494	0.03859595	0.276102152	0.417207489	0.145691578
0.1	0.018640923	0.024442283	0.038462042	0.276743538	0.416673547	0.145045042
0.101	0.018751515	0.024180653	0.038329721	0.277305605	0.41606381	0.144399974
0.102	0.018876081	0.023931364	0.038199392	0.277788403	0.415379242	0.143757679
